# Made in Blockbench 5.0.7
mtllib SmallWorld.mtl

o mesh
v 0.5 0 0.5
v 0.5 0 -0.5
v -0.5 0 0.5
v -0.5 0 -0.5
vt 1 0
vt 1 0.5
vt 0.5 0.5
vt 0.5 0
vn 0 -1 0
usemtl m_c62800d7-4392-b708-d243-6eb5e0f82a36
f 2/1/1 1/2/1 3/3/1 4/4/1
o mesh
v 0.5 1 1.5
v 0.5 1 0.5
v 0.5 0 1.5
v 0.5 0 0.5
v -0.5 1 1.5
v -0.5 1 0.5
v -0.5 0 1.5
v -0.5 0 0.5
vt 1 0
vt 1 0.5
vt 0.5 0.5
vt 0.5 0
vt 1 0
vt 1 0.5
vt 0.5 0.5
vt 0.5 0
vt 1 0
vt 1 0.5
vt 0.5 0.5
vt 0.5 0
vn 0 1 0
vn 0 -1 0
vn 0 0 1
usemtl m_c62800d7-4392-b708-d243-6eb5e0f82a36
f 9/5/2 5/6/2 6/7/2 10/8/2
f 8/9/3 7/10/3 11/11/3 12/12/3
f 7/13/4 5/14/4 9/15/4 11/16/4
o mesh
v -0.5 1 0.5
v -0.5 1 -0.5
v -0.5 0 0.5
v -0.5 0 -0.5
v -1.5 1 0.5
v -1.5 1 -0.5
v -1.5 0 0.5
v -1.5 0 -0.5
vt 1 0
vt 1 0.5
vt 0.5 0.5
vt 0.5 0
vt 1 0
vt 1 0.5
vt 0.5 0.5
vt 0.5 0
vt 1 0
vt 1 0.5
vt 0.5 0.5
vt 0.5 0
vn 0 1 0
vn 0 -1 0
vn -1 0 0
usemtl m_c62800d7-4392-b708-d243-6eb5e0f82a36
f 17/17/5 13/18/5 14/19/5 18/20/5
f 16/21/6 15/22/6 19/23/6 20/24/6
f 19/25/7 17/26/7 18/27/7 20/28/7
o mesh
v -0.5 1 1.5
v -0.5 1 0.5
v -0.5 0 1.5
v -0.5 0 0.5
v -1.5 1 1.5
v -1.5 1 0.5
v -1.5 0 1.5
v -1.5 0 0.5
vt 1 0
vt 1 0.5
vt 0.5 0.5
vt 0.5 0
vt 1 0
vt 1 0.5
vt 0.5 0.5
vt 0.5 0
vt 1 0
vt 1 0.5
vt 0.5 0.5
vt 0.5 0
vt 1 0
vt 1 0.5
vt 0.5 0.5
vt 0.5 0
vn -1 0 0
vn 0 1 0
vn 0 -1 0
vn 0 0 1
usemtl m_c62800d7-4392-b708-d243-6eb5e0f82a36
f 27/29/8 25/30/8 26/31/8 28/32/8
f 25/33/9 21/34/9 22/35/9 26/36/9
f 24/37/10 23/38/10 27/39/10 28/40/10
f 23/41/11 21/42/11 25/43/11 27/44/11
o mesh
v 1.5 1 1.5
v 1.5 1 0.5
v 1.5 0 1.5
v 1.5 0 0.5
v 0.5 1 1.5
v 0.5 1 0.5
v 0.5 0 1.5
v 0.5 0 0.5
vt 1 0
vt 1 0.5
vt 0.5 0.5
vt 0.5 0
vt 1 0
vt 1 0.5
vt 0.5 0.5
vt 0.5 0
vt 1 0
vt 1 0.5
vt 0.5 0.5
vt 0.5 0
vt 1 0
vt 1 0.5
vt 0.5 0.5
vt 0.5 0
vn 1 0 0
vn 0 1 0
vn 0 -1 0
vn 0 0 1
usemtl m_c62800d7-4392-b708-d243-6eb5e0f82a36
f 30/45/12 29/46/12 31/47/12 32/48/12
f 33/49/13 29/50/13 30/51/13 34/52/13
f 32/53/14 31/54/14 35/55/14 36/56/14
f 31/57/15 29/58/15 33/59/15 35/60/15
o mesh
v 1.5 1 0.5
v 1.5 1 -0.5
v 1.5 0 0.5
v 1.5 0 -0.5
v 0.5 1 0.5
v 0.5 1 -0.5
v 0.5 0 0.5
v 0.5 0 -0.5
vt 1 0
vt 1 0.5
vt 0.5 0.5
vt 0.5 0
vt 1 0
vt 1 0.5
vt 0.5 0.5
vt 0.5 0
vt 1 0
vt 1 0.5
vt 0.5 0.5
vt 0.5 0
vn 1 0 0
vn 0 1 0
vn 0 -1 0
usemtl m_c62800d7-4392-b708-d243-6eb5e0f82a36
f 38/61/16 37/62/16 39/63/16 40/64/16
f 41/65/17 37/66/17 38/67/17 42/68/17
f 40/69/18 39/70/18 43/71/18 44/72/18
o mesh
v 0.5 1 -0.5
v 0.5 1 -1.5
v 0.5 0 -0.5
v 0.5 0 -1.5
v -0.5 1 -0.5
v -0.5 1 -1.5
v -0.5 0 -0.5
v -0.5 0 -1.5
vt 1 0
vt 1 0.5
vt 0.5 0.5
vt 0.5 0
vt 1 0
vt 1 0.5
vt 0.5 0.5
vt 0.5 0
vt 1 0
vt 1 0.5
vt 0.5 0.5
vt 0.5 0
vn 0 1 0
vn 0 -1 0
vn 0 0 -1
usemtl m_c62800d7-4392-b708-d243-6eb5e0f82a36
f 49/73/19 45/74/19 46/75/19 50/76/19
f 48/77/20 47/78/20 51/79/20 52/80/20
f 50/81/21 46/82/21 48/83/21 52/84/21
o mesh
v -0.5 1 -0.5
v -0.5 1 -1.5
v -0.5 0 -0.5
v -0.5 0 -1.5
v -1.5 1 -0.5
v -1.5 1 -1.5
v -1.5 0 -0.5
v -1.5 0 -1.5
vt 1 0
vt 1 0.5
vt 0.5 0.5
vt 0.5 0
vt 1 0
vt 1 0.5
vt 0.5 0.5
vt 0.5 0
vt 1 0
vt 1 0.5
vt 0.5 0.5
vt 0.5 0
vt 1 0
vt 1 0.5
vt 0.5 0.5
vt 0.5 0
vn -1 0 0
vn 0 1 0
vn 0 -1 0
vn 0 0 -1
usemtl m_c62800d7-4392-b708-d243-6eb5e0f82a36
f 59/85/22 57/86/22 58/87/22 60/88/22
f 57/89/23 53/90/23 54/91/23 58/92/23
f 56/93/24 55/94/24 59/95/24 60/96/24
f 58/97/25 54/98/25 56/99/25 60/100/25
o mesh
v 1.5 1 -0.5
v 1.5 1 -1.5
v 1.5 0 -0.5
v 1.5 0 -1.5
v 0.5 1 -0.5
v 0.5 1 -1.5
v 0.5 0 -0.5
v 0.5 0 -1.5
vt 1 0
vt 1 0.5
vt 0.5 0.5
vt 0.5 0
vt 1 0
vt 1 0.5
vt 0.5 0.5
vt 0.5 0
vt 1 0
vt 1 0.5
vt 0.5 0.5
vt 0.5 0
vt 1 0
vt 1 0.5
vt 0.5 0.5
vt 0.5 0
vn 1 0 0
vn 0 1 0
vn 0 -1 0
vn 0 0 -1
usemtl m_c62800d7-4392-b708-d243-6eb5e0f82a36
f 62/101/26 61/102/26 63/103/26 64/104/26
f 65/105/27 61/106/27 62/107/27 66/108/27
f 64/109/28 63/110/28 67/111/28 68/112/28
f 66/113/29 62/114/29 64/115/29 68/116/29
o mesh
v 0.5 2 0.5
v 0.5 2 -0.5
v 0.5 1 0.5
v 0.5 1 -0.5
v -0.5 2 0.5
v -0.5 2 -0.5
v -0.5 1 0.5
v -0.5 1 -0.5
vt 0.5 1
vt 0 1
vt 0 0.5
vt 0.5 0.5
vt 0.5 0.5
vt 0.5 1
vt 0 1
vt 0 0.5
vt 0.5 0.5
vt 0.5 1
vt 0 1
vt 0 0.5
vt 0.5 1
vt 0 1
vt 0 0.5
vt 0.5 0.5
vn 1 0 0
vn -1 0 0
vn 0 0 1
vn 0 0 -1
usemtl m_c62800d7-4392-b708-d243-6eb5e0f82a36
f 70/117/30 69/118/30 71/119/30 72/120/30
f 75/121/31 73/122/31 74/123/31 76/124/31
f 71/125/32 69/126/32 73/127/32 75/128/32
f 74/129/33 70/130/33 72/131/33 76/132/33
o mesh
v 0.5 3 0.5
v 0.5 3 -0.5
v 0.5 2 0.5
v 0.5 2 -0.5
v -0.5 3 0.5
v -0.5 3 -0.5
v -0.5 2 0.5
v -0.5 2 -0.5
vt 0.5 1
vt 0 1
vt 0 0.5
vt 0.5 0.5
vt 0.5 0.5
vt 0.5 1
vt 0 1
vt 0 0.5
vt 0.5 0.5
vt 0.5 1
vt 0 1
vt 0 0.5
vt 0.5 1
vt 0 1
vt 0 0.5
vt 0.5 0.5
vn 1 0 0
vn -1 0 0
vn 0 0 1
vn 0 0 -1
usemtl m_c62800d7-4392-b708-d243-6eb5e0f82a36
f 78/133/34 77/134/34 79/135/34 80/136/34
f 83/137/35 81/138/35 82/139/35 84/140/35
f 79/141/36 77/142/36 81/143/36 83/144/36
f 82/145/37 78/146/37 80/147/37 84/148/37
o mesh
v 0.5 4 0.5
v 0.5 4 -0.5
v 0.5 3 0.5
v 0.5 3 -0.5
v -0.5 4 0.5
v -0.5 4 -0.5
v -0.5 3 0.5
v -0.5 3 -0.5
vt 0.5 1
vt 0 1
vt 0 0.5
vt 0.5 0.5
vt 0.5 0.5
vt 0.5 1
vt 0 1
vt 0 0.5
vt 0.5 0.5
vt 0.5 1
vt 0 1
vt 0 0.5
vt 0.5 1
vt 0 1
vt 0 0.5
vt 0.5 0.5
vn 1 0 0
vn -1 0 0
vn 0 0 1
vn 0 0 -1
usemtl m_c62800d7-4392-b708-d243-6eb5e0f82a36
f 86/149/38 85/150/38 87/151/38 88/152/38
f 91/153/39 89/154/39 90/155/39 92/156/39
f 87/157/40 85/158/40 89/159/40 91/160/40
f 90/161/41 86/162/41 88/163/41 92/164/41
o mesh
v 0.5 5 0.5
v 0.5 5 -0.5
v 0.5 4 0.5
v 0.5 4 -0.5
v -0.5 5 0.5
v -0.5 5 -0.5
v -0.5 4 0.5
v -0.5 4 -0.5
vt 0.5 0.5
vt 0 0.5
vt 0 0
vt 0.5 0
vt 0.5 0
vt 0.5 0.5
vt 0 0.5
vt 0 0
vt 0 0
vt 0.5 0
vt 0.5 0.5
vt 0 0.5
vt 0.5 0
vt 0.5 0.5
vt 0 0.5
vt 0 0
vt 0.5 0.5
vt 0 0.5
vt 0 0
vt 0.5 0
vn 1 0 0
vn -1 0 0
vn 0 1 0
vn 0 0 1
vn 0 0 -1
usemtl m_c62800d7-4392-b708-d243-6eb5e0f82a36
f 94/165/42 93/166/42 95/167/42 96/168/42
f 99/169/43 97/170/43 98/171/43 100/172/43
f 97/173/44 93/174/44 94/175/44 98/176/44
f 95/177/45 93/178/45 97/179/45 99/180/45
f 98/181/46 94/182/46 96/183/46 100/184/46
o mesh
v 1.5 5 0.5
v 1.5 5 -0.5
v 1.5 4 0.5
v 1.5 4 -0.5
v 0.5 5 0.5
v 0.5 5 -0.5
v 0.5 4 0.5
v 0.5 4 -0.5
vt 0.5 0.5
vt 0 0.5
vt 0 0
vt 0.5 0
vt 0.5 0
vt 0.5 0.5
vt 0 0.5
vt 0 0
vt 0 0
vt 0.5 0
vt 0.5 0.5
vt 0 0.5
vt 0.5 0
vt 0.5 0.5
vt 0 0.5
vt 0 0
vt 0.5 0
vt 0.5 0.5
vt 0 0.5
vt 0 0
vt 0.5 0.5
vt 0 0.5
vt 0 0
vt 0.5 0
vn 1 0 0
vn -1 0 0
vn 0 1 0
vn 0 -1 0
vn 0 0 1
vn 0 0 -1
usemtl m_c62800d7-4392-b708-d243-6eb5e0f82a36
f 102/185/47 101/186/47 103/187/47 104/188/47
f 107/189/48 105/190/48 106/191/48 108/192/48
f 105/193/49 101/194/49 102/195/49 106/196/49
f 104/197/50 103/198/50 107/199/50 108/200/50
f 103/201/51 101/202/51 105/203/51 107/204/51
f 106/205/52 102/206/52 104/207/52 108/208/52
o mesh
v 1.5 5 1.5
v 1.5 5 0.5
v 1.5 4 1.5
v 1.5 4 0.5
v 0.5 5 1.5
v 0.5 5 0.5
v 0.5 4 1.5
v 0.5 4 0.5
vt 0.5 0.5
vt 0 0.5
vt 0 0
vt 0.5 0
vt 0.5 0
vt 0.5 0.5
vt 0 0.5
vt 0 0
vt 0 0
vt 0.5 0
vt 0.5 0.5
vt 0 0.5
vt 0.5 0
vt 0.5 0.5
vt 0 0.5
vt 0 0
vt 0.5 0
vt 0.5 0.5
vt 0 0.5
vt 0 0
vt 0.5 0.5
vt 0 0.5
vt 0 0
vt 0.5 0
vn 1 0 0
vn -1 0 0
vn 0 1 0
vn 0 -1 0
vn 0 0 1
vn 0 0 -1
usemtl m_c62800d7-4392-b708-d243-6eb5e0f82a36
f 110/209/53 109/210/53 111/211/53 112/212/53
f 115/213/54 113/214/54 114/215/54 116/216/54
f 113/217/55 109/218/55 110/219/55 114/220/55
f 112/221/56 111/222/56 115/223/56 116/224/56
f 111/225/57 109/226/57 113/227/57 115/228/57
f 114/229/58 110/230/58 112/231/58 116/232/58
o mesh
v 0.5 5 1.5
v 0.5 5 0.5
v 0.5 4 1.5
v 0.5 4 0.5
v -0.5 5 1.5
v -0.5 5 0.5
v -0.5 4 1.5
v -0.5 4 0.5
vt 0.5 0.5
vt 0 0.5
vt 0 0
vt 0.5 0
vt 0.5 0
vt 0.5 0.5
vt 0 0.5
vt 0 0
vt 0 0
vt 0.5 0
vt 0.5 0.5
vt 0 0.5
vt 0.5 0
vt 0.5 0.5
vt 0 0.5
vt 0 0
vt 0.5 0
vt 0.5 0.5
vt 0 0.5
vt 0 0
vt 0.5 0.5
vt 0 0.5
vt 0 0
vt 0.5 0
vn 1 0 0
vn -1 0 0
vn 0 1 0
vn 0 -1 0
vn 0 0 1
vn 0 0 -1
usemtl m_c62800d7-4392-b708-d243-6eb5e0f82a36
f 118/233/59 117/234/59 119/235/59 120/236/59
f 123/237/60 121/238/60 122/239/60 124/240/60
f 121/241/61 117/242/61 118/243/61 122/244/61
f 120/245/62 119/246/62 123/247/62 124/248/62
f 119/249/63 117/250/63 121/251/63 123/252/63
f 122/253/64 118/254/64 120/255/64 124/256/64
o mesh
v 1.5 5 -0.5
v 1.5 5 -1.5
v 1.5 4 -0.5
v 1.5 4 -1.5
v 0.5 5 -0.5
v 0.5 5 -1.5
v 0.5 4 -0.5
v 0.5 4 -1.5
vt 0.5 0.5
vt 0 0.5
vt 0 0
vt 0.5 0
vt 0.5 0
vt 0.5 0.5
vt 0 0.5
vt 0 0
vt 0 0
vt 0.5 0
vt 0.5 0.5
vt 0 0.5
vt 0.5 0
vt 0.5 0.5
vt 0 0.5
vt 0 0
vt 0.5 0
vt 0.5 0.5
vt 0 0.5
vt 0 0
vt 0.5 0.5
vt 0 0.5
vt 0 0
vt 0.5 0
vn 1 0 0
vn -1 0 0
vn 0 1 0
vn 0 -1 0
vn 0 0 1
vn 0 0 -1
usemtl m_c62800d7-4392-b708-d243-6eb5e0f82a36
f 126/257/65 125/258/65 127/259/65 128/260/65
f 131/261/66 129/262/66 130/263/66 132/264/66
f 129/265/67 125/266/67 126/267/67 130/268/67
f 128/269/68 127/270/68 131/271/68 132/272/68
f 127/273/69 125/274/69 129/275/69 131/276/69
f 130/277/70 126/278/70 128/279/70 132/280/70
o mesh
v 0.5 5 -0.5
v 0.5 5 -1.5
v 0.5 4 -0.5
v 0.5 4 -1.5
v -0.5 5 -0.5
v -0.5 5 -1.5
v -0.5 4 -0.5
v -0.5 4 -1.5
vt 0.5 0.5
vt 0 0.5
vt 0 0
vt 0.5 0
vt 0.5 0
vt 0.5 0.5
vt 0 0.5
vt 0 0
vt 0 0
vt 0.5 0
vt 0.5 0.5
vt 0 0.5
vt 0.5 0
vt 0.5 0.5
vt 0 0.5
vt 0 0
vt 0.5 0
vt 0.5 0.5
vt 0 0.5
vt 0 0
vt 0.5 0.5
vt 0 0.5
vt 0 0
vt 0.5 0
vn 1 0 0
vn -1 0 0
vn 0 1 0
vn 0 -1 0
vn 0 0 1
vn 0 0 -1
usemtl m_c62800d7-4392-b708-d243-6eb5e0f82a36
f 134/281/71 133/282/71 135/283/71 136/284/71
f 139/285/72 137/286/72 138/287/72 140/288/72
f 137/289/73 133/290/73 134/291/73 138/292/73
f 136/293/74 135/294/74 139/295/74 140/296/74
f 135/297/75 133/298/75 137/299/75 139/300/75
f 138/301/76 134/302/76 136/303/76 140/304/76
o mesh
v -0.5 5 1.5
v -0.5 5 0.5
v -0.5 4 1.5
v -0.5 4 0.5
v -1.5 5 1.5
v -1.5 5 0.5
v -1.5 4 1.5
v -1.5 4 0.5
vt 0.5 0.5
vt 0 0.5
vt 0 0
vt 0.5 0
vt 0.5 0
vt 0.5 0.5
vt 0 0.5
vt 0 0
vt 0 0
vt 0.5 0
vt 0.5 0.5
vt 0 0.5
vt 0.5 0
vt 0.5 0.5
vt 0 0.5
vt 0 0
vt 0.5 0
vt 0.5 0.5
vt 0 0.5
vt 0 0
vt 0.5 0.5
vt 0 0.5
vt 0 0
vt 0.5 0
vn 1 0 0
vn -1 0 0
vn 0 1 0
vn 0 -1 0
vn 0 0 1
vn 0 0 -1
usemtl m_c62800d7-4392-b708-d243-6eb5e0f82a36
f 142/305/77 141/306/77 143/307/77 144/308/77
f 147/309/78 145/310/78 146/311/78 148/312/78
f 145/313/79 141/314/79 142/315/79 146/316/79
f 144/317/80 143/318/80 147/319/80 148/320/80
f 143/321/81 141/322/81 145/323/81 147/324/81
f 146/325/82 142/326/82 144/327/82 148/328/82
o mesh
v -0.5 5 0.5
v -0.5 5 -0.5
v -0.5 4 0.5
v -0.5 4 -0.5
v -1.5 5 0.5
v -1.5 5 -0.5
v -1.5 4 0.5
v -1.5 4 -0.5
vt 0.5 0.5
vt 0 0.5
vt 0 0
vt 0.5 0
vt 0.5 0
vt 0.5 0.5
vt 0 0.5
vt 0 0
vt 0 0
vt 0.5 0
vt 0.5 0.5
vt 0 0.5
vt 0.5 0
vt 0.5 0.5
vt 0 0.5
vt 0 0
vt 0.5 0
vt 0.5 0.5
vt 0 0.5
vt 0 0
vt 0.5 0.5
vt 0 0.5
vt 0 0
vt 0.5 0
vn 1 0 0
vn -1 0 0
vn 0 1 0
vn 0 -1 0
vn 0 0 1
vn 0 0 -1
usemtl m_c62800d7-4392-b708-d243-6eb5e0f82a36
f 150/329/83 149/330/83 151/331/83 152/332/83
f 155/333/84 153/334/84 154/335/84 156/336/84
f 153/337/85 149/338/85 150/339/85 154/340/85
f 152/341/86 151/342/86 155/343/86 156/344/86
f 151/345/87 149/346/87 153/347/87 155/348/87
f 154/349/88 150/350/88 152/351/88 156/352/88
o mesh
v -0.5 5 -0.5
v -0.5 5 -1.5
v -0.5 4 -0.5
v -0.5 4 -1.5
v -1.5 5 -0.5
v -1.5 5 -1.5
v -1.5 4 -0.5
v -1.5 4 -1.5
vt 0.5 0.5
vt 0 0.5
vt 0 0
vt 0.5 0
vt 0.5 0
vt 0.5 0.5
vt 0 0.5
vt 0 0
vt 0 0
vt 0.5 0
vt 0.5 0.5
vt 0 0.5
vt 0.5 0
vt 0.5 0.5
vt 0 0.5
vt 0 0
vt 0.5 0
vt 0.5 0.5
vt 0 0.5
vt 0 0
vt 0.5 0.5
vt 0 0.5
vt 0 0
vt 0.5 0
vn 1 0 0
vn -1 0 0
vn 0 1 0
vn 0 -1 0
vn 0 0 1
vn 0 0 -1
usemtl m_c62800d7-4392-b708-d243-6eb5e0f82a36
f 158/353/89 157/354/89 159/355/89 160/356/89
f 163/357/90 161/358/90 162/359/90 164/360/90
f 161/361/91 157/362/91 158/363/91 162/364/91
f 160/365/92 159/366/92 163/367/92 164/368/92
f 159/369/93 157/370/93 161/371/93 163/372/93
f 162/373/94 158/374/94 160/375/94 164/376/94
o plane
v 0.5 4 0.5
v 0.5 4 -0.5
v -0.5 4 0.5
v -0.5 4 -0.5
vt 1 0.5
vt 1 1
vt 0.5 1
vt 0.5 0.5
vn 0 1 0
usemtl m_c62800d7-4392-b708-d243-6eb5e0f82a36
f 165/377/95 166/378/95 168/379/95 167/380/95
o mesh
v 0.5 6 0.5
v 0.5 6 -0.5
v 0.5 5 0.5
v 0.5 5 -0.5
v -0.5 6 0.5
v -0.5 6 -0.5
v -0.5 5 0.5
v -0.5 5 -0.5
vt 0.5 0.5
vt 0 0.5
vt 0 0
vt 0.5 0
vt 0.5 0
vt 0.5 0.5
vt 0 0.5
vt 0 0
vt 0 0
vt 0.5 0
vt 0.5 0.5
vt 0 0.5
vt 0.5 0
vt 0.5 0.5
vt 0 0.5
vt 0 0
vt 0.5 0
vt 0.5 0.5
vt 0 0.5
vt 0 0
vt 0.5 0.5
vt 0 0.5
vt 0 0
vt 0.5 0
vn 1 0 0
vn -1 0 0
vn 0 1 0
vn 0 -1 0
vn 0 0 1
vn 0 0 -1
usemtl m_c62800d7-4392-b708-d243-6eb5e0f82a36
f 170/381/96 169/382/96 171/383/96 172/384/96
f 175/385/97 173/386/97 174/387/97 176/388/97
f 173/389/98 169/390/98 170/391/98 174/392/98
f 172/393/99 171/394/99 175/395/99 176/396/99
f 171/397/100 169/398/100 173/399/100 175/400/100
f 174/401/101 170/402/101 172/403/101 176/404/101